<svg width="14" height="14" viewBox="0 0 14 14" fill="none" xmlns="http://www.w3.org/2000/svg">
<path d="M5.25 12.2502H8.75C8.75 12.7143 8.56563 13.1595 8.23744 13.4877C7.90925 13.8158 7.46413 14.0002 7 14.0002C6.53587 14.0002 6.09075 13.8158 5.76256 13.4877C5.43437 13.1595 5.25 12.7143 5.25 12.2502ZM0.875 11.3752C0.642936 11.3752 0.420376 11.283 0.256282 11.1189C0.0921872 10.9548 0 10.7323 0 10.5002C0 10.2682 0.0921872 10.0456 0.256282 9.8815C0.420376 9.7174 0.642936 9.62522 0.875 9.62522H1.313C1.6944 9.29616 2.00674 8.89472 2.23195 8.44414C2.45715 7.99356 2.59075 7.50278 2.625 7.00022V4.37522C2.61939 3.79912 2.72872 3.22769 2.9466 2.69436C3.16447 2.16103 3.48652 1.6765 3.8939 1.26912C4.30128 0.861737 4.78581 0.539689 5.31914 0.321812C5.85248 0.103935 6.42391 -0.00539612 7 0.00021558C7.57613 -0.00553213 8.14762 0.103706 8.68102 0.321535C9.21441 0.539364 9.699 0.861407 10.1064 1.26881C10.5138 1.67622 10.8359 2.1608 11.0537 2.6942C11.2715 3.22759 11.3807 3.79908 11.375 4.37522V7.00022C11.4093 7.50288 11.543 7.99373 11.7684 8.44434C11.9937 8.89494 12.3063 9.29632 12.688 9.62522H13.126C13.3581 9.62522 13.5806 9.7174 13.7447 9.8815C13.9088 10.0456 14.001 10.2682 14.001 10.5002C14.001 10.7323 13.9088 10.9548 13.7447 11.1189C13.5806 11.283 13.3581 11.3752 13.126 11.3752H0.875Z" fill="#D8D8D8"/>
</svg>
