<svg width="13" height="13" viewBox="0 0 13 13" fill="none" xmlns="http://www.w3.org/2000/svg">
<path d="M6.5 6.5C7.14279 6.5 7.77114 6.30939 8.3056 5.95228C8.84006 5.59516 9.25662 5.08758 9.50261 4.49372C9.74859 3.89986 9.81295 3.2464 9.68755 2.61596C9.56215 1.98552 9.25262 1.40642 8.7981 0.951904C8.34358 0.497383 7.76448 0.187851 7.13404 0.0624493C6.50361 -0.0629527 5.85014 0.00140817 5.25628 0.247393C4.66242 0.493378 4.15484 0.909939 3.79772 1.4444C3.44061 1.97886 3.25 2.60721 3.25 3.25C3.24987 3.67683 3.33384 4.09951 3.49712 4.49388C3.6604 4.88825 3.89979 5.24658 4.20161 5.54839C4.50343 5.85021 4.86176 6.0896 5.25612 6.25288C5.65049 6.41616 6.07317 6.50013 6.5 6.5ZM6.5 8.125C4.331 8.125 0 9.214 0 11.375V13H13V11.375C13 9.214 8.669 8.125 6.5 8.125Z" fill="#182026"/>
</svg>
