<svg width="25" height="25" viewBox="0 0 25 25" fill="none" xmlns="http://www.w3.org/2000/svg">
<path d="M5.53676 25C4.06882 24.9982 2.6615 24.4143 1.62353 23.3763C0.585556 22.3383 0.00168647 20.9309 0 19.463L0 5.53603C0.0017517 4.06819 0.585674 2.66099 1.62366 1.62314C2.66165 0.585292 4.06893 0.00155675 5.53676 0L19.4635 0C20.9313 0.00149212 22.3386 0.585214 23.3766 1.62308C24.4145 2.66095 24.9984 4.0682 25 5.53603V19.463C24.9984 20.9309 24.4146 22.3383 23.3767 23.3764C22.3388 24.4144 20.9314 24.9983 19.4635 25H5.53676ZM1.36201 5.53603V19.463C1.36318 20.5699 1.80338 21.6311 2.58603 22.4139C3.36868 23.1966 4.42986 23.6369 5.53676 23.6382H19.4635C20.5703 23.6369 21.6314 23.1965 22.4139 22.4138C23.1964 21.631 23.6365 20.5698 23.6375 19.463V5.53603C23.6363 4.42935 23.1962 3.36832 22.4137 2.58575C21.6312 1.80319 20.5702 1.363 19.4635 1.36176H5.53676C4.42999 1.36293 3.36888 1.80308 2.58623 2.58564C1.80358 3.3682 1.36331 4.42926 1.36201 5.53603ZM16.6596 18.1287L12.5074 9.57426L8.42672 18.1282H5.74877L11.2025 6.87108H13.7973L19.251 18.1287H16.6596Z" fill="#00D246"/>
</svg>
